<svg width="64" height="64" viewBox="0 0 64 64" fill="none" xmlns="http://www.w3.org/2000/svg">
<path d="M4 2C2.89543 2 2 2.89543 2 4V43C2 44.1046 2.89543 45 4 45H18.0091C18.003 44.8341 18 44.6674 18 44.5C18 43.2895 18.1593 42.1162 18.4581 41H13C11.8954 41 11.0371 40.0697 10.6065 39.0525C10.1006 37.8571 9.14286 36.8994 7.94748 36.3935C6.93029 35.9629 6 35.1046 6 34V14C6 12.8954 6.93201 12.036 7.94408 11.5935C9.29829 11.0014 10.3389 9.8184 10.7741 8.41817C11.1494 7.21071 12.0823 6 13.3468 6H50.6533C51.9177 6 52.8506 7.2107 53.2259 8.41815C53.6611 9.81839 54.7017 11.0014 56.0559 11.5935C57.068 12.036 58 12.8954 58 14V34C58 35.1046 57.0697 35.9629 56.0525 36.3935C54.8571 36.8994 53.8994 37.8571 53.3935 39.0525C52.9629 40.0697 52.1046 41 51 41H44.5419C44.8407 42.1162 45 43.2895 45 44.5C45 44.6674 44.997 44.8341 44.9909 45H60C61.1046 45 62 44.1046 62 43V4C62 2.89543 61.1046 2 60 2H4Z" fill="#C6B20B"/>
<path d="M20 44.5C20 44.6675 20.0036 44.8342 20.0107 45C20.0395 45.6737 20.1263 46.3324 20.2662 46.9712C21.0792 50.6842 23.6862 53.7259 27.1328 55.1418C28.4794 55.695 29.9541 56 31.5 56C33.1841 56 34.7836 55.638 36.225 54.9876C39.7455 53.399 42.3228 50.0898 42.8851 46.132L42.8863 46.1237C42.9384 45.7545 42.9731 45.3796 42.9893 45C42.9964 44.8342 43 44.6675 43 44.5C43 43.2796 42.8099 42.1036 42.4577 41C42.2349 40.302 41.9473 39.633 41.602 39C39.6516 35.4252 35.859 33 31.5 33C27.141 33 23.3484 35.4252 21.398 39C21.0527 39.633 20.7651 40.302 20.5423 41C20.1901 42.1036 20 43.2796 20 44.5Z" fill="#C6B20B"/>
<path d="M46 12H18V14H46V12Z" fill="#C6B20B"/>
<path fill-rule="evenodd" clip-rule="evenodd" d="M50.9921 39H43.8325C42.054 35.0181 38.4036 32.0556 34 31.231V31H42C42.5523 31 43 30.5523 43 30C43 29.4477 42.5523 29 42 29H22C21.4477 29 21 29.4477 21 30C21 30.5523 21.4477 31 22 31H29V31.231C24.5964 32.0556 20.946 35.0181 19.1675 39H13.0079C12.9901 38.9938 12.9468 38.9726 12.876 38.91C12.7344 38.7847 12.5709 38.5624 12.4483 38.2729C11.7398 36.5989 10.4011 35.2602 8.72709 34.5517C8.4376 34.4291 8.21532 34.2656 8.09001 34.124C8.02737 34.0532 8.00624 34.0099 8 33.9921V14.0081C8.00631 13.9898 8.02804 13.9445 8.09348 13.8702C8.22229 13.724 8.44953 13.5553 8.74528 13.426C10.6415 12.5969 12.0798 10.9556 12.684 9.01182C12.7964 8.65021 12.982 8.33572 13.1654 8.14585C13.2673 8.04037 13.3304 8.00838 13.3545 8H50.6455C50.6696 8.00838 50.7327 8.04036 50.8346 8.14584C51.018 8.33571 51.2036 8.6502 51.316 9.0118C51.9202 10.9556 53.3585 12.5969 55.2547 13.426C55.5505 13.5553 55.7777 13.724 55.9065 13.8702C55.972 13.9445 55.9937 13.9898 56 14.0081V33.9921C55.9938 34.0099 55.9726 34.0532 55.91 34.124C55.7847 34.2656 55.5624 34.4291 55.2729 34.5517C53.5989 35.2602 52.2602 36.5989 51.5517 38.2729C51.4291 38.5624 51.2656 38.7847 51.124 38.91C51.0532 38.9726 51.0099 38.9938 50.9921 39ZM16 12C16 10.8954 16.8954 10 18 10H46C47.1046 10 48 10.8954 48 12V14C48 15.1046 47.1046 16 46 16H18C16.8954 16 16 15.1046 16 14V12ZM12 19C11.4477 19 11 19.4477 11 20C11 20.5523 11.4477 21 12 21H52C52.5523 21 53 20.5523 53 20C53 19.4477 52.5523 19 52 19H12ZM16 25C16 24.4477 16.4477 24 17 24H47C47.5523 24 48 24.4477 48 25C48 25.5523 47.5523 26 47 26H17C16.4477 26 16 25.5523 16 25Z" fill="#C6B20B"/>
<path d="M7.9978 14.0175C7.9978 14.0175 7.99776 14.0148 7.99954 14.0094C7.999 14.0148 7.9978 14.0175 7.9978 14.0175Z" fill="#C6B20B"/>
<path d="M13.3656 7.9975C13.3656 7.9975 13.3623 7.99906 13.3555 7.99963C13.3623 7.99737 13.3656 7.9975 13.3656 7.9975Z" fill="#C6B20B"/>
<path d="M50.6344 7.9975C50.6344 7.9975 50.6378 7.99738 50.6445 7.99963C50.6377 7.99905 50.6344 7.9975 50.6344 7.9975Z" fill="#C6B20B"/>
<path d="M56.0022 14.0175C56.0022 14.0175 56.001 14.0148 56.0004 14.0094C56.0022 14.0149 56.0022 14.0175 56.0022 14.0175Z" fill="#C6B20B"/>
<path d="M56.0022 33.9843L56.0014 33.9853L56.0008 33.9879L56.0004 33.9909L56.0017 33.9865L56.0022 33.9843Z" fill="#C6B20B"/>
<path d="M50.9827 39.0022C50.9827 39.0022 50.9855 39.001 50.9909 39.0004C50.9854 39.0023 50.9827 39.0022 50.9827 39.0022Z" fill="#C6B20B"/>
<path d="M13.0174 39.0022C13.0174 39.0022 13.0147 39.0023 13.0092 39.0004C13.0146 39.001 13.0174 39.0022 13.0174 39.0022Z" fill="#C6B20B"/>
<path d="M13.3303 53.9071L18.6347 48.6027C19.8012 52.2639 22.4874 55.2471 25.9518 56.8108L21.0929 61.6697C20.4362 62.3264 19.3643 61.9441 19.3528 61.049L19.2841 55.7159L13.951 55.6472C13.0559 55.6357 12.6736 54.5638 13.3303 53.9071Z" fill="#C6B20B"/>
<path d="M37.7216 56.4841L42.9072 61.6697C43.5639 62.3264 44.6358 61.9441 44.6473 61.049L44.716 55.7159L50.0491 55.6472C50.9442 55.6357 51.3265 54.5638 50.6698 53.9071L44.5876 47.8249C43.6332 51.5929 41.0944 54.7295 37.7216 56.4841Z" fill="#C6B20B"/>
</svg>
