<svg width="510" height="512" viewBox="0 0 510 512" fill="none" xmlns="http://www.w3.org/2000/svg">
<path d="M135 242C60.561 242 0 302.561 0 377C0 451.439 60.561 512 135 512C209.439 512 270 451.439 270 377C270 302.561 209.439 242 135 242ZM194.606 360.606L124.606 430.606C121.678 433.535 117.839 435 114 435C110.161 435 106.322 433.535 103.394 430.606L73.394 400.606C67.536 394.749 67.536 385.251 73.394 379.393C79.251 373.536 88.749 373.536 94.607 379.393L114 398.787L173.394 339.393C179.251 333.536 188.749 333.536 194.607 339.393C200.464 345.251 200.464 354.749 194.606 360.606Z" fill="#05AC13"/>
<path d="M395 130C386.716 130 380 123.284 380 115V0H165C140.187 0 120 20.187 120 45V212.689C124.942 212.241 129.943 212 135 212C186.128 212 231.897 235.376 262.186 272H425C433.284 272 440 278.716 440 287C440 295.284 433.284 302 425 302H281.948C291.324 320.296 297.37 340.565 299.311 362H425C433.284 362 440 368.716 440 377C440 385.284 433.284 392 425 392H299.311C294.825 441.539 268.357 484.826 229.758 512H465C489.813 512 510 491.813 510 467V130H395ZM425 212H205C196.716 212 190 205.284 190 197C190 188.716 196.716 182 205 182H425C433.284 182 440 188.716 440 197C440 205.284 433.284 212 425 212Z" fill="#05AC13"/>
<path d="M410 8.78302V100H501.211L410 8.78302Z" fill="#05AC13"/>
</svg>
