<svg width="354" height="449" viewBox="0 0 354 449" fill="none" xmlns="http://www.w3.org/2000/svg">
<path d="M321 150.56L325.64 155.36C327.127 156.86 328.897 158.05 330.847 158.862C332.797 159.675 334.888 160.093 337 160.093C339.112 160.093 341.203 159.675 343.153 158.862C345.103 158.05 346.873 156.86 348.36 155.36C349.86 153.873 351.05 152.103 351.862 150.153C352.675 148.203 353.093 146.112 353.093 144C353.093 141.888 352.675 139.797 351.862 137.847C351.05 135.897 349.86 134.127 348.36 132.64L316.36 100.64C314.868 99.1482 313.097 97.9648 311.148 97.1574C309.199 96.3501 307.11 95.9345 305 95.9345C300.739 95.9345 296.653 97.6271 293.64 100.64C292.148 102.132 290.965 103.903 290.157 105.852C289.35 107.801 288.935 109.89 288.935 112C288.935 116.261 290.627 120.347 293.64 123.36L298.44 128L289.64 136.8C271.272 121.523 249.987 110.145 227.08 103.36C236.056 92.2019 240.965 78.3202 241 64C241 47.0261 234.257 30.7475 222.255 18.7452C210.252 6.74284 193.974 0 177 0C160.026 0 143.747 6.74284 131.745 18.7452C119.743 30.7475 113 47.0261 113 64C113.035 78.3202 117.944 92.2019 126.92 103.36C104.215 110.167 83.1431 121.547 65 136.8L55.56 128L60.36 123.36C63.3729 120.347 65.0655 116.261 65.0655 112C65.0655 107.739 63.3729 103.653 60.36 100.64C57.3471 97.6271 53.2608 95.9345 49 95.9345C44.7392 95.9345 40.6529 97.6271 37.64 100.64L5.64 132.64C4.14034 134.127 2.95004 135.897 2.13774 137.847C1.32544 139.797 0.907227 141.888 0.907227 144C0.907227 146.112 1.32544 148.203 2.13774 150.153C2.95004 152.103 4.14034 153.873 5.64 155.36C7.12741 156.86 8.89702 158.05 10.8468 158.862C12.7965 159.675 14.8878 160.093 17 160.093C19.1122 160.093 21.2035 159.675 23.1532 158.862C25.103 158.05 26.8726 156.86 28.36 155.36L33 150.56L41.8 159.36C20.3826 185.058 6.7324 216.327 2.44884 249.504C-1.83471 282.682 3.42578 316.392 17.614 346.687C31.8021 376.982 54.3303 402.606 82.5589 420.556C110.788 438.507 143.547 448.041 177 448.041C210.453 448.041 243.212 438.507 271.441 420.556C299.67 402.606 322.198 376.982 336.386 346.687C350.574 316.392 355.835 282.682 351.551 249.504C347.268 216.327 333.617 185.058 312.2 159.36L321 150.56ZM193 128.96V144C193 148.243 191.314 152.313 188.314 155.314C185.313 158.314 181.243 160 177 160C172.757 160 168.687 158.314 165.686 155.314C162.686 152.313 161 148.243 161 144V128.96C171.628 127.679 182.372 127.679 193 128.96ZM177 32C183.984 32.0713 190.752 34.4253 196.273 38.7028C201.794 42.9804 205.763 48.9466 207.576 55.6911C209.389 62.4356 208.946 69.5881 206.314 76.0572C203.683 82.5263 199.007 87.9567 193 91.52V80C193 75.7565 191.314 71.6869 188.314 68.6863C185.313 65.6857 181.243 64 177 64C172.757 64 168.687 65.6857 165.686 68.6863C162.686 71.6869 161 75.7565 161 80V91.52C154.993 87.9567 150.318 82.5263 147.686 76.0572C145.054 69.5881 144.611 62.4356 146.424 55.6911C148.237 48.9466 152.206 42.9804 157.727 38.7028C163.248 34.4253 170.016 32.0713 177 32ZM49 288H33.96C32.6795 277.372 32.6795 266.628 33.96 256H49C53.2435 256 57.3131 257.686 60.3137 260.686C63.3143 263.687 65 267.757 65 272C65 276.243 63.3143 280.313 60.3137 283.314C57.3131 286.314 53.2435 288 49 288ZM193 415.04C182.372 416.321 171.628 416.321 161 415.04V400C161 395.757 162.686 391.687 165.686 388.686C168.687 385.686 172.757 384 177 384C181.243 384 185.313 385.686 188.314 388.686C191.314 391.687 193 395.757 193 400V415.04ZM252.36 219.36L220.36 251.36C223.422 257.809 225.008 264.861 225 272C225 281.494 222.185 290.774 216.911 298.667C211.636 306.561 204.14 312.713 195.369 316.346C186.598 319.979 176.947 320.93 167.636 319.078C158.325 317.226 149.772 312.654 143.059 305.941C136.346 299.228 131.774 290.675 129.922 281.364C128.07 272.053 129.021 262.402 132.654 253.631C136.287 244.86 142.439 237.364 150.333 232.089C158.226 226.815 167.506 224 177 224C184.152 224.042 191.204 225.682 197.64 228.8L229.64 196.8C232.653 193.787 236.739 192.095 241 192.095C245.261 192.095 249.347 193.787 252.36 196.8C255.373 199.813 257.065 203.899 257.065 208.16C257.065 212.421 255.373 216.507 252.36 219.52V219.36ZM321 272C321.004 277.348 320.683 282.691 320.04 288H305C300.757 288 296.687 286.314 293.686 283.314C290.686 280.313 289 276.243 289 272C289 267.757 290.686 263.687 293.686 260.686C296.687 257.686 300.757 256 305 256H320.04C320.683 261.309 321.004 266.652 321 272Z" fill="#E33384"/>
<path d="M177 288C185.837 288 193 280.837 193 272C193 263.163 185.837 256 177 256C168.163 256 161 263.163 161 272C161 280.837 168.163 288 177 288Z" fill="#E33384"/>
</svg>
