<svg xmlns="http://www.w3.org/2000/svg" version="1.1" xmlns:xlink="http://www.w3.org/1999/xlink" width="512" height="512" x="0" y="0" viewBox="0 0 512 512" style="enable-background:new 0 0 512 512" xml:space="preserve" class=""><g><path d="M27.703 437.829h86.874V74.171H27.703C16.545 74.171 7.5 83.216 7.5 94.374v323.252c0 11.158 9.045 20.203 20.203 20.203z" style="" fill="#ffffff" data-original="#c8effe" class="" opacity="1"></path><path d="M84.272 74.171h30.305V437.83H84.272z" style="" fill="#99e6fc" data-original="#99e6fc" class=""></path><path d="M114.577 387.321v-30.305H62.049a8.081 8.081 0 0 0-8.081 8.081v14.142a8.081 8.081 0 0 0 8.081 8.081h52.528z" style="" fill="#8bc727" data-original="#8bc727" class=""></path><path d="M114.577 205.492v-30.305H55.988a8.081 8.081 0 0 0-8.081 8.081v14.142a8.081 8.081 0 0 0 8.081 8.081h58.589z" style="" fill="#3c87d0" data-original="#3c87d0" class=""></path><path d="M377.22 478.236H134.781c-11.158 0-20.203-9.045-20.203-20.203V53.967c0-11.158 9.045-20.203 20.203-20.203H377.22c11.158 0 20.203 9.045 20.203 20.203v404.065c0 11.158-9.046 20.204-20.203 20.204z" style="" fill="#dff6fd" data-original="#dff6fd" class=""></path><path d="M484.297 437.829h-86.874V74.171h86.874c11.158 0 20.203 9.045 20.203 20.203v323.252c0 11.158-9.045 20.203-20.203 20.203z" style="" fill="#ffffff" data-original="#c8effe" class="" opacity="1"></path><path d="M397.423 74.171h30.305V437.83h-30.305z" style="" fill="#99e6fc" data-original="#99e6fc" class=""></path><path d="M195.39 429.748v-14.142a8.081 8.081 0 0 1 8.081-8.081h105.057a8.081 8.081 0 0 1 8.081 8.081v14.142a8.081 8.081 0 0 1-8.081 8.081H203.472a8.081 8.081 0 0 1-8.082-8.081z" style="" fill="#a2e62e" data-original="#a2e62e"></path><path d="M397.423 387.321v-30.305h52.528a8.081 8.081 0 0 1 8.081 8.081v14.142a8.081 8.081 0 0 1-8.081 8.081h-52.528z" style="" fill="#8bc727" data-original="#8bc727" class=""></path><path d="M308.528 407.524h-30.305a8.081 8.081 0 0 1 8.081 8.081v14.142a8.081 8.081 0 0 1-8.081 8.081h30.305a8.081 8.081 0 0 0 8.081-8.081v-14.142a8.08 8.08 0 0 0-8.081-8.081z" style="" fill="#97d729" data-original="#97d729" class=""></path><path d="M377.22 33.764h-32.325c11.158 0 20.203 9.045 20.203 20.203v404.065c0 11.158-9.045 20.203-20.203 20.203h32.325c11.158 0 20.203-9.045 20.203-20.203V53.967c0-11.157-9.046-20.203-20.203-20.203z" style="" fill="#ffffff" data-original="#c8effe" class="" opacity="1"></path><path d="M273.509 98.415 256 74.171l-17.509 24.244-32.999-14.143 10.102 60.61h80.812l10.102-60.61z" style="" fill="#ffd15b" data-original="#ffd15b" class=""></path><path d="M144.882 197.411v-14.142a8.081 8.081 0 0 1 8.081-8.081h206.073a8.081 8.081 0 0 1 8.081 8.081v14.142a8.081 8.081 0 0 1-8.081 8.081H152.963a8.081 8.081 0 0 1-8.081-8.081z" style="" fill="#5f99d7" data-original="#5f99d7" class=""></path><path d="M397.423 205.492v-30.305h58.589a8.081 8.081 0 0 1 8.081 8.081v14.142a8.081 8.081 0 0 1-8.081 8.081h-58.589zM359.037 175.187h-30.305a8.081 8.081 0 0 1 8.081 8.081v14.142a8.081 8.081 0 0 1-8.081 8.081h30.305a8.081 8.081 0 0 0 8.081-8.081v-14.142a8.081 8.081 0 0 0-8.081-8.081z" style="" fill="#3c87d0" data-original="#3c87d0" class=""></path><path d="M114.577 357.016H62.049a8.081 8.081 0 0 0-8.081 8.081v14.142a8.081 8.081 0 0 0 8.081 8.081h52.528M114.577 175.187H55.988a8.081 8.081 0 0 0-8.081 8.081v14.142a8.081 8.081 0 0 0 8.081 8.081h58.589M114.577 235.797H37.805M114.577 276.203H37.805M114.577 316.61H37.805" style="stroke-width:15;stroke-linecap:round;stroke-linejoin:round;stroke-miterlimit:10;" fill="none" stroke="#000000" stroke-width="15" stroke-linecap="round" stroke-linejoin="round" stroke-miterlimit="10" data-original="#000000" class=""></path><path d="M7.5 183.56v234.07c0 11.15 9.05 20.2 20.2 20.2h86.88M7.5 148.56V94.37c0-11.15 9.05-20.2 20.2-20.2h86.88M397.423 357.016h52.528a8.081 8.081 0 0 1 8.081 8.081v14.142a8.081 8.081 0 0 1-8.081 8.081h-52.528M273.509 98.415 256 74.171l-17.509 24.244-32.999-14.143 10.102 60.61h80.812l10.102-60.61zM205.492 144.882h101.016M256 119.176h0M397.423 175.187h58.589a8.081 8.081 0 0 1 8.081 8.081v14.142a8.081 8.081 0 0 1-8.081 8.081h-58.589M144.882 197.411v-14.142a8.081 8.081 0 0 1 8.081-8.081h206.073a8.081 8.081 0 0 1 8.081 8.081v14.142a8.081 8.081 0 0 1-8.081 8.081H152.963a8.081 8.081 0 0 1-8.081-8.081zM346.915 245.898h-121.22M195.39 245.898h-30.305M346.915 286.305h-121.22M195.39 286.305h-30.305M346.915 326.711h-121.22M195.39 326.711h-30.305M346.915 367.118h-121.22M474.195 235.797h-76.772M474.195 276.203h-76.772M474.195 316.61h-76.772M195.39 367.118h-30.305M195.39 429.748v-14.142a8.081 8.081 0 0 1 8.081-8.081h105.057a8.081 8.081 0 0 1 8.081 8.081v14.142a8.081 8.081 0 0 1-8.081 8.081H203.472a8.081 8.081 0 0 1-8.082-8.081z" style="stroke-width:15;stroke-linecap:round;stroke-linejoin:round;stroke-miterlimit:10;" fill="none" stroke="#000000" stroke-width="15" stroke-linecap="round" stroke-linejoin="round" stroke-miterlimit="10" data-original="#000000" class=""></path><path d="M200.93 33.76h176.29c11.16 0 20.2 9.05 20.2 20.21v404.06c0 11.16-9.04 20.21-20.2 20.21H134.78c-11.16 0-20.2-9.05-20.2-20.21V53.97c0-11.16 9.04-20.21 20.2-20.21h31.15M504.5 369.71v47.92c0 11.15-9.05 20.2-20.2 20.2h-86.88M397.42 74.17h86.88c11.15 0 20.2 9.05 20.2 20.2v240.34" style="stroke-width:15;stroke-linecap:round;stroke-linejoin:round;stroke-miterlimit:10;" fill="none" stroke="#000000" stroke-width="15" stroke-linecap="round" stroke-linejoin="round" stroke-miterlimit="10" data-original="#000000" class=""></path></g></svg>