<svg width="512" height="512" viewBox="0 0 512 512" fill="none" xmlns="http://www.w3.org/2000/svg">
<path d="M256 203.755C227.192 203.755 203.755 227.192 203.755 256C203.755 284.808 227.192 308.245 256 308.245C284.808 308.245 308.245 284.808 308.245 256C308.245 227.192 284.808 203.755 256 203.755Z" fill="#3527D6"/>
<path d="M88.816 0H15.673C7.018 0 0 7.018 0 15.673V88.816C0 97.472 7.018 104.489 15.673 104.489C24.329 104.489 31.346 97.471 31.346 88.816V31.347H88.815C97.471 31.347 104.488 24.329 104.488 15.674C104.49 7.018 97.472 0 88.816 0Z" fill="#3527D6"/>
<path d="M88.816 480.653H31.347V423.184C31.347 414.528 24.329 407.511 15.674 407.511C7.018 407.51 0 414.528 0 423.184V496.327C0 504.982 7.018 512 15.673 512H88.816C97.472 512 104.489 504.982 104.489 496.327C104.489 487.672 97.472 480.653 88.816 480.653Z" fill="#3527D6"/>
<path d="M496.32 0H423.177C414.521 0 407.504 7.018 407.504 15.673C407.504 24.329 414.522 31.346 423.177 31.346H480.646V88.815C480.646 97.471 487.664 104.488 496.319 104.488C504.974 104.488 511.992 97.47 511.992 88.815V15.673C511.994 7.018 504.976 0 496.32 0Z" fill="#3527D6"/>
<path d="M496.32 407.51C487.664 407.51 480.647 414.528 480.647 423.183V480.652H423.178C414.522 480.652 407.505 487.67 407.505 496.325C407.505 504.98 414.521 512 423.177 512H496.32C504.976 512 511.993 504.982 511.993 496.327V423.184C511.994 414.528 504.976 407.51 496.32 407.51Z" fill="#3527D6"/>
<path d="M509.893 248.152C459.042 160.25 364.08 101.6 256 101.6C147.855 101.6 52.926 160.304 2.10699 248.152C-0.702006 253.008 -0.702006 258.993 2.10699 263.848C52.958 351.75 147.92 410.4 256 410.4C364.145 410.4 459.074 351.696 509.893 263.848C512.702 258.993 512.702 253.007 509.893 248.152ZM256 360.49C198.384 360.49 151.51 313.616 151.51 256C151.51 198.384 198.384 151.51 256 151.51C313.616 151.51 360.49 198.384 360.49 256C360.49 313.616 313.616 360.49 256 360.49Z" fill="#3527D6"/>
</svg>
